<svg xmlns="http://www.w3.org/2000/svg" width="33" height="32" viewBox="0 0 33 32" fill="none">
  <path d="M18 16C18 16.8284 17.3284 17.5 16.5 17.5C15.6716 17.5 15 16.8284 15 16C15 15.1716 15.6716 14.5 16.5 14.5C17.3284 14.5 18 15.1716 18 16Z" fill="#707070"/>
  <path d="M18 8C18 8.82837 17.3284 9.5 16.5 9.5C15.6716 9.5 15 8.82837 15 8C15 7.17163 15.6716 6.5 16.5 6.5C17.3284 6.5 18 7.17163 18 8Z" fill="#707070"/>
  <path d="M18 24C18 24.8284 17.3284 25.5 16.5 25.5C15.6716 25.5 15 24.8284 15 24C15 23.1716 15.6716 22.5 16.5 22.5C17.3284 22.5 18 23.1716 18 24Z" fill="#707070"/>
</svg>