<svg width="14" height="14" viewBox="0 0 14 14" fill="none" xmlns="http://www.w3.org/2000/svg">
<g id="Search">
<path id="Vector" d="M12.5566 12.5616C12.475 12.642 12.365 12.6872 12.2504 12.6874C12.1342 12.6869 12.0227 12.6419 11.9387 12.5616L9.57617 10.1937C8.58118 11.0294 7.30196 11.4487 6.0053 11.3642C4.70864 11.2797 3.49466 10.6979 2.61656 9.74009C1.73845 8.78228 1.26402 7.52245 1.2922 6.22335C1.32039 4.92424 1.84902 3.68617 2.76784 2.76735C3.68666 1.84853 4.92473 1.3199 6.22383 1.29171C7.52294 1.26353 8.78277 1.73796 9.74058 2.61607C10.6984 3.49417 11.2802 4.70815 11.3647 6.00481C11.4492 7.30147 11.0299 8.58069 10.1941 9.57568L12.5566 11.9382C12.598 11.9789 12.6308 12.0274 12.6532 12.0809C12.6756 12.1344 12.6872 12.1919 12.6872 12.2499C12.6872 12.3079 12.6756 12.3654 12.6532 12.4189C12.6308 12.4724 12.598 12.5209 12.5566 12.5616ZM6.34414 10.4999C7.16617 10.4999 7.96974 10.2561 8.65323 9.79945C9.33672 9.34275 9.86944 8.69364 10.184 7.93418C10.4986 7.17472 10.5809 6.33904 10.4205 5.53281C10.2602 4.72657 9.86431 3.986 9.28305 3.40474C8.70179 2.82348 7.96122 2.42763 7.15498 2.26726C6.34875 2.10689 5.51307 2.1892 4.75361 2.50378C3.99416 2.81835 3.34504 3.35107 2.88834 4.03456C2.43165 4.71806 2.18789 5.52162 2.18789 6.34365C2.18934 7.44551 2.62769 8.50183 3.40683 9.28097C4.18596 10.0601 5.24228 10.4985 6.34414 10.4999Z" fill="#060809" fill-opacity="0.2"/>
</g>
</svg>
